<svg width="61" height="60" viewBox="0 0 61 60" fill="none" xmlns="http://www.w3.org/2000/svg">
<g id="noun-canadian-flag-4062171 1">
<path id="Vector" d="M4.44202 14.04V46.032H56.558V14.04H4.44202ZM17.252 15.0001H30.5H43.652L43.5 45.0001H30.5H17.5L17.252 15.0001Z" fill="#272828"/>
<path id="Vector_2" d="M41.6779 30.3598C41.6779 30.3598 40.274 30.1198 40.082 29.2498C39.89 28.3798 41.24 25.5238 41.24 25.5238C40.2123 25.8469 39.1612 26.0896 38.096 26.2498C37.178 26.2978 37.034 24.6058 37.034 24.6058C37.034 24.6058 34.7 28.0858 34.1 27.5578C33.5 27.0298 35.354 20.7418 35.354 20.7418C35.354 20.7418 34.328 22.1998 33.266 22.0438C32.204 21.8878 30.8 18.5218 30.704 18.2998C30.614 18.5218 29.174 21.8998 28.142 22.0438C27.11 22.1878 26.066 20.7418 26.066 20.7418C26.066 20.7418 27.938 26.9998 27.308 27.5578C26.678 28.1158 24.362 24.5998 24.362 24.5998C24.362 24.5998 24.218 26.2918 23.3 26.2438C22.2347 26.0836 21.1836 25.8409 20.156 25.5178C20.156 25.5178 21.5 28.3798 21.314 29.2498C21.128 30.1198 19.7 30.3598 19.7 30.3598C19.7 30.3598 23.756 33.7438 23.804 34.8538C23.799 35.6199 23.592 36.3712 23.204 37.0318C23.204 37.0318 28.7 35.9638 29.582 36.1138C30.464 36.2638 30.308 37.5598 30.308 38.1898C30.308 38.8198 30.212 41.8618 30.212 41.8618H31.184C31.184 41.8618 31.1 38.8198 31.1 38.1898C31.1 37.5598 30.956 36.2578 31.826 36.1138C32.696 35.9698 38.21 37.0318 38.21 37.0318C37.8208 36.3717 37.6138 35.6201 37.61 34.8538C37.616 33.7438 41.6779 30.3598 41.6779 30.3598Z" fill="#272828"/>
</g>
</svg>
