<svg width="14" height="11" viewBox="0 0 14 11" fill="none" xmlns="http://www.w3.org/2000/svg">
<path id="Vector" d="M5.20312 9.29688C5.20312 9.29688 5.2526 9.34635 5.35156 9.44531C5.45052 9.54427 5.5 9.72917 5.5 10C5.5 10.2708 5.40104 10.5052 5.20312 10.7031C5.00521 10.901 4.77083 11 4.5 11C4.22917 11 3.99479 10.901 3.79688 10.7031C3.59896 10.5052 3.5 10.2708 3.5 10C3.5 9.72917 3.59896 9.49479 3.79688 9.29688C3.99479 9.09896 4.22917 9 4.5 9C4.77083 9 5.00521 9.09896 5.20312 9.29688ZM12.2031 9.29688C12.2031 9.29688 12.2526 9.34635 12.3516 9.44531C12.4505 9.54427 12.5 9.72917 12.5 10C12.5 10.2708 12.401 10.5052 12.2031 10.7031C12.0052 10.901 11.7708 11 11.5 11C11.2292 11 10.9948 10.901 10.7969 10.7031C10.599 10.5052 10.5 10.2708 10.5 10C10.5 9.72917 10.599 9.49479 10.7969 9.29688C10.9948 9.09896 11.2292 9 11.5 9C11.7708 9 12.0052 9.09896 12.2031 9.29688ZM13.5 1.5V5.5C13.5 5.625 13.457 5.73568 13.3711 5.83203C13.2852 5.92839 13.1797 5.98438 13.0547 6L4.89844 6.95312C4.96615 7.26562 5 7.44792 5 7.5C5 7.58333 4.9375 7.75 4.8125 8H12C12.1354 8 12.2526 8.04948 12.3516 8.14844C12.4505 8.2474 12.5 8.36458 12.5 8.5C12.5 8.63542 12.4505 8.7526 12.3516 8.85156C12.2526 8.95052 12.1354 9 12 9H4C3.86458 9 3.7474 8.95052 3.64844 8.85156C3.54948 8.7526 3.5 8.63542 3.5 8.5C3.5 8.44271 3.52083 8.36068 3.5625 8.25391C3.60417 8.14714 3.64583 8.05339 3.6875 7.97266C3.72917 7.89193 3.78516 7.78776 3.85547 7.66016C3.92578 7.53255 3.96615 7.45573 3.97656 7.42969L2.59375 1H1C0.864583 1 0.747396 0.950521 0.648438 0.851562C0.549479 0.752604 0.5 0.635417 0.5 0.5C0.5 0.364583 0.549479 0.247396 0.648438 0.148438C0.747396 0.0494795 0.864583 0 1 0H3C3.08333 0 3.15755 0.0169268 3.22266 0.0507812C3.28776 0.0846357 3.33854 0.125 3.375 0.171875C3.41146 0.21875 3.44531 0.282552 3.47656 0.363281C3.50781 0.444011 3.52865 0.511719 3.53906 0.566406C3.54948 0.621094 3.5638 0.697917 3.58203 0.796875C3.60026 0.895833 3.61198 0.963542 3.61719 1H13C13.1354 1 13.2526 1.04948 13.3516 1.14844C13.4505 1.2474 13.5 1.36458 13.5 1.5Z" fill="#282727"/>
</svg>
