<svg width="61" height="60" viewBox="0 0 61 60" fill="none" xmlns="http://www.w3.org/2000/svg">
<g id="noun-warranty-5204414 1">
<path id="Vector" fill-rule="evenodd" clip-rule="evenodd" d="M47.9055 27.0559C48.2382 26.5793 48.6166 26.0365 48.6166 25.7154C48.6166 25.3943 48.2396 24.8543 47.9055 24.377C47.4718 23.7565 46.9802 23.0543 46.8091 22.2184C46.6332 21.362 46.8221 20.5159 46.9877 19.7686C47.1009 19.264 47.24 18.6374 47.1391 18.3995C47.0389 18.1629 46.4716 17.8179 46.0577 17.5663C45.4127 17.1749 44.6818 16.7311 44.2012 16.0199C43.7171 15.3034 43.5807 14.4565 43.4607 13.7086C43.3857 13.2388 43.2821 12.5945 43.1102 12.4234C42.9391 12.2509 42.2948 12.1479 41.8243 12.0722C41.0764 11.9515 40.2302 11.8159 39.5137 11.3324C38.8018 10.8511 38.3587 10.1209 37.9673 9.47585C37.715 9.06199 37.3714 8.49404 37.1341 8.39449C36.8948 8.29426 36.2682 8.43404 35.7643 8.54586C35.0171 8.71222 34.1723 8.89972 33.3146 8.72449C32.4787 8.55335 31.7757 8.06245 31.1559 7.62813C30.6787 7.29404 30.1373 6.91699 29.8175 6.91699C29.4977 6.91699 28.9564 7.29404 28.4791 7.62813C27.8587 8.06176 27.1564 8.55267 26.3205 8.72449C25.4641 8.89972 24.6173 8.71154 23.8707 8.54586C23.3655 8.43336 22.7375 8.29358 22.5009 8.39449C22.2643 8.49472 21.92 9.06199 21.6678 9.47585C21.2771 10.1209 20.8332 10.8518 20.1221 11.3324C19.4048 11.8159 18.558 11.9522 17.8107 12.0722C17.3402 12.1486 16.6959 12.2522 16.5248 12.4234C16.3523 12.5952 16.2493 13.2388 16.1737 13.7093C16.0537 14.4565 15.9166 15.304 15.4332 16.0199C14.9532 16.7304 14.2216 17.1743 13.5766 17.5663C13.1628 17.8172 12.5955 18.1615 12.4953 18.3981C12.3943 18.6361 12.5341 19.264 12.6453 19.7686C12.8116 20.5159 12.9998 21.362 12.8246 22.2184C12.6541 23.0543 12.1625 23.7579 11.7296 24.3777C11.3968 24.8549 11.0184 25.3949 11.0184 25.7161C11.0184 26.0365 11.3955 26.5765 11.7296 27.0545C12.1632 27.6743 12.6548 28.3779 12.8259 29.2138C13.0018 30.0695 12.813 30.9163 12.6473 31.6629C12.5355 32.1674 12.3964 32.794 12.4966 33.0327C12.5968 33.2693 13.1641 33.6136 13.578 33.8652C14.223 34.2565 14.9539 34.7004 15.4346 35.4115C15.9187 36.1281 16.055 36.9749 16.175 37.7229C16.2514 38.1933 16.3537 38.8377 16.5262 39.0088C16.6973 39.1813 17.3416 39.2843 17.8114 39.3599C17.9443 39.3811 18.0814 39.4043 18.2198 39.4281C18.2232 39.4288 18.2259 39.4281 18.2287 39.4288C18.2416 39.4309 18.2559 39.4349 18.2689 39.437C18.408 39.4629 18.5477 39.4888 18.6889 39.5215C18.6957 39.5229 18.7018 39.5243 18.7087 39.5263C18.8505 39.5583 18.9916 39.5979 19.1321 39.6415C19.1546 39.6483 19.1771 39.6552 19.2002 39.6627C19.3455 39.7097 19.4887 39.7656 19.6298 39.8297C19.6523 39.8393 19.6741 39.8508 19.6959 39.8611C19.8418 39.9306 19.9843 40.0077 20.1221 40.0997C20.2993 40.2204 20.4602 40.3561 20.6082 40.502C21.0507 40.9404 21.3739 41.4729 21.6678 41.957C21.9187 42.3708 22.263 42.9381 22.5002 43.0383C22.7389 43.1386 23.3662 42.9988 23.87 42.887C23.9812 42.8624 24.0964 42.8372 24.2123 42.8127C24.2505 42.8052 24.288 42.7977 24.3275 42.7895C24.4312 42.7677 24.5355 42.7486 24.6418 42.7302C24.6691 42.7254 24.695 42.7206 24.7223 42.7159C24.8484 42.6954 24.9759 42.679 25.1055 42.6654C25.1396 42.6627 25.173 42.6606 25.2071 42.6572C25.3121 42.6483 25.4171 42.6429 25.5221 42.6415C25.5466 42.6409 25.5712 42.6374 25.5957 42.6374C25.6087 42.6374 25.6223 42.6388 25.6352 42.6388C25.7075 42.6395 25.7798 42.6436 25.8527 42.6483C25.8937 42.6504 25.9352 42.6511 25.9775 42.6558C26.0914 42.6674 26.2059 42.6838 26.3212 42.707C27.1571 42.8788 27.86 43.369 28.4805 43.8027C28.5234 43.8327 28.5664 43.8627 28.61 43.8927L28.6659 43.9322C29.0921 44.2268 29.5387 44.5138 29.8182 44.5138C30.0916 44.5138 30.5259 44.2377 30.9439 43.9499L31.1552 43.8034C31.3107 43.6949 31.4716 43.5831 31.638 43.4734C31.9359 43.2763 32.2557 43.0895 32.5973 42.9408C32.6362 42.9245 32.6743 42.9054 32.7139 42.8897C32.7262 42.8849 32.7384 42.8815 32.75 42.8768C32.9321 42.8059 33.1196 42.7465 33.3159 42.707C33.38 42.694 33.4427 42.6872 33.5068 42.6777C34.2971 42.5631 35.0737 42.7322 35.7664 42.8856C36.2689 42.9974 36.8968 43.1372 37.1362 43.0363C37.2248 42.9988 37.3284 42.8959 37.4368 42.7595C37.6175 42.5324 37.8105 42.214 37.9673 41.9549C38.2946 41.417 38.6682 40.8265 39.1932 40.3636C39.2968 40.2722 39.3971 40.1774 39.5143 40.0984C39.65 40.007 39.7925 39.9306 39.9357 39.8618C39.9602 39.8502 39.9848 39.8372 40.0093 39.8256C40.1484 39.7629 40.2896 39.7084 40.4327 39.662C40.458 39.6538 40.4825 39.6463 40.5077 39.6388C40.6448 39.5965 40.7832 39.5583 40.9209 39.527C40.9305 39.5249 40.94 39.5222 40.9489 39.5202C41.0873 39.4888 41.223 39.4629 41.3593 39.4384C41.375 39.4356 41.3914 39.4315 41.4077 39.4288C41.4118 39.4281 41.4146 39.4288 41.418 39.4281C41.5564 39.4043 41.6934 39.3804 41.8264 39.3593C42.2962 39.2829 42.9405 39.1793 43.1123 39.0081C43.2834 38.837 43.3871 38.1933 43.4627 37.7229C43.5827 36.9749 43.7191 36.1281 44.2032 35.4115C44.6832 34.7004 45.4148 34.2565 46.0598 33.8652C46.4737 33.6143 47.0409 33.2699 47.1412 33.0334C47.2414 32.794 47.1016 32.1674 46.9898 31.6629C46.8234 30.9156 46.6352 30.0695 46.8111 29.2131C46.9816 28.3786 47.4718 27.6756 47.9055 27.0559ZM29.8189 39.4499C22.2466 39.4499 16.0864 33.289 16.0864 25.7174C16.0864 18.1452 22.2466 11.9856 29.8189 11.9856C37.3912 11.9856 43.5507 18.1459 43.5507 25.7181C43.5507 33.2897 37.3905 39.4499 29.8189 39.4499ZM29.8189 14.6324C23.7064 14.6324 18.7332 19.6056 18.7332 25.7181C18.7332 31.8306 23.7064 36.8031 29.8189 36.8031C35.9314 36.8031 40.9046 31.8299 40.9046 25.7174C40.9039 19.6049 35.9314 14.6324 29.8189 14.6324ZM35.1125 23.0277L29.5168 29.9611C29.2946 30.2372 28.97 30.4124 28.6168 30.4465C28.5732 30.4513 28.5296 30.4527 28.4866 30.4527C28.1784 30.4527 27.8777 30.3449 27.6398 30.1459L23.9914 27.1063C23.4296 26.6379 23.3539 25.8034 23.8223 25.2422C24.2914 24.6804 25.1246 24.6054 25.6864 25.0724L28.3025 27.2536L33.0534 21.3661C33.513 20.7974 34.3455 20.7081 34.9148 21.1677C35.4827 21.6259 35.5707 22.4597 35.1125 23.0277ZM40.7914 42.4908L45.3855 57.5059L41.4466 55.4134C40.8002 55.0711 40.0005 55.3145 39.6568 55.9615L37.5637 59.8997L33.1946 45.6211C33.2218 45.604 33.2498 45.5843 33.2764 45.5679C33.2921 45.5583 33.3084 45.5474 33.3241 45.5386C33.4121 45.4854 33.4973 45.4383 33.5777 45.4002C33.5914 45.3933 33.605 45.3886 33.6187 45.3818C33.7005 45.3449 33.7775 45.3149 33.8471 45.3006C33.8934 45.2911 33.9548 45.2931 34.0114 45.2911C34.3209 45.2822 34.7587 45.3736 35.1923 45.4704C36.1093 45.6749 37.1498 45.9054 38.1671 45.4758C38.2946 45.4213 38.4159 45.3593 38.5312 45.2904C38.9866 45.017 39.3418 44.6379 39.6377 44.239C39.8641 43.9349 40.0564 43.6186 40.2316 43.3295C40.2575 43.2872 40.2827 43.2449 40.3093 43.202C40.3175 43.189 40.3257 43.1754 40.3339 43.1624C40.3537 43.1311 40.3734 43.0997 40.3918 43.0683C40.4218 43.0206 40.4518 42.9722 40.4818 42.9252C40.4941 42.9068 40.505 42.8883 40.5166 42.8706C40.5568 42.8093 40.5971 42.7493 40.6373 42.6927C40.6489 42.6763 40.6605 42.6613 40.6721 42.6449C40.7048 42.6006 40.7368 42.559 40.7682 42.5202C40.775 42.5106 40.7832 42.5004 40.7914 42.4908ZM26.3696 45.574C26.3927 45.5884 26.4173 45.6054 26.4418 45.6204L22.0727 59.8997L19.9796 55.9608C19.7409 55.5129 19.2834 55.2579 18.8102 55.2579C18.6002 55.2579 18.3882 55.3077 18.1898 55.4127L14.2516 57.5059L18.8457 42.4908C18.8539 42.5004 18.8621 42.5106 18.8703 42.5202C18.9016 42.559 18.9337 42.6006 18.9657 42.6449C18.9773 42.6613 18.9889 42.6763 19.0012 42.6934C19.0407 42.7506 19.0816 42.8099 19.1218 42.8713C19.1327 42.8883 19.1443 42.9068 19.1559 42.9238C19.1873 42.9736 19.2193 43.0227 19.2507 43.0738C19.2657 43.0984 19.2807 43.1229 19.2957 43.1468C19.3332 43.2081 19.3714 43.2695 19.4068 43.3295C19.4648 43.4249 19.5241 43.5238 19.5862 43.6227C20.0205 44.3215 20.5741 45.0961 21.4707 45.4745C22.488 45.904 23.5271 45.6736 24.4455 45.469C24.9575 45.3552 25.4866 45.2372 25.79 45.2993C25.8575 45.3129 25.9352 45.3429 26.0164 45.3797C26.0314 45.3865 26.0457 45.3927 26.0614 45.3995C26.1398 45.437 26.2223 45.4827 26.3082 45.5345C26.328 45.5474 26.3491 45.5604 26.3696 45.574Z" fill="#272828"/>
</g>
</svg>
