<svg width="39" height="42" viewBox="0 0 39 42" fill="none" xmlns="http://www.w3.org/2000/svg">
<path id="Vector" d="M34.625 3.75H30.875V3C30.875 2.40326 30.6379 1.83097 30.216 1.40901C29.794 0.987053 29.2217 0.75 28.625 0.75C28.0283 0.75 27.456 0.987053 27.034 1.40901C26.6121 1.83097 26.375 2.40326 26.375 3V3.75H12.875V3C12.875 2.40326 12.6379 1.83097 12.216 1.40901C11.794 0.987053 11.2217 0.75 10.625 0.75C10.0283 0.75 9.45597 0.987053 9.03401 1.40901C8.61205 1.83097 8.375 2.40326 8.375 3V3.75H4.625C3.63044 3.75 2.67661 4.14509 1.97335 4.84835C1.27009 5.55161 0.875 6.50544 0.875 7.5V37.5C0.875 38.4946 1.27009 39.4484 1.97335 40.1516C2.67661 40.8549 3.63044 41.25 4.625 41.25H34.625C35.6196 41.25 36.5734 40.8549 37.2766 40.1516C37.9799 39.4484 38.375 38.4946 38.375 37.5V7.5C38.375 6.50544 37.9799 5.55161 37.2766 4.84835C36.5734 4.14509 35.6196 3.75 34.625 3.75ZM8.375 8.25C8.375 8.84674 8.61205 9.41903 9.03401 9.84099C9.45597 10.2629 10.0283 10.5 10.625 10.5C11.2217 10.5 11.794 10.2629 12.216 9.84099C12.6379 9.41903 12.875 8.84674 12.875 8.25H26.375C26.375 8.84674 26.6121 9.41903 27.034 9.84099C27.456 10.2629 28.0283 10.5 28.625 10.5C29.2217 10.5 29.794 10.2629 30.216 9.84099C30.6379 9.41903 30.875 8.84674 30.875 8.25H33.875V12.75H5.375V8.25H8.375ZM5.375 36.75V17.25H33.875V36.75H5.375Z" fill="white"/>
</svg>
