<svg width="49" height="48" viewBox="0 0 49 48" fill="none" xmlns="http://www.w3.org/2000/svg">
<g id="icon-1.svg" clip-path="url(#clip0_777_1694)">
<g id="Clip path group">
<mask id="mask0_777_1694" style="mask-type:luminance" maskUnits="userSpaceOnUse" x="0" y="0" width="49" height="48">
<g id="clip0_80_832">
<path id="Vector" d="M48.875 0H0.875V48H48.875V0Z" fill="white"/>
</g>
</mask>
<g mask="url(#mask0_777_1694)">
<g id="Group">
<path id="Vector_2" d="M46.625 14.25H3.125C2.52826 14.25 1.95597 14.4871 1.53401 14.909C1.11205 15.331 0.875 15.9033 0.875 16.5V17.25C0.875 23.6152 3.40356 29.7197 7.90444 34.2206C12.4053 38.7214 18.5098 41.25 24.875 41.25C31.2402 41.25 37.3447 38.7214 41.8456 34.2206C46.3464 29.7197 48.875 23.6152 48.875 17.25V16.5C48.875 15.9033 48.6379 15.331 48.216 14.909C47.794 14.4871 47.2217 14.25 46.625 14.25ZM12.9725 18.75H20.9769L16.7506 26.0719C14.6649 24.1549 13.3262 21.5607 12.9725 18.75ZM24.875 21L29.1763 28.4494C26.4081 29.5168 23.3419 29.5168 20.5737 28.4494L24.875 21ZM32.9994 26.0719L28.7731 18.75H36.7775C36.4238 21.5607 35.0851 24.1549 32.9994 26.0719ZM24.875 36.75C19.9646 36.7438 15.2367 34.888 11.6333 31.5521C8.02991 28.2163 5.8155 23.6454 5.43125 18.75H8.44438C8.82127 22.8471 10.7153 26.6556 13.755 29.4285C16.7946 32.2013 20.7606 33.7385 24.875 33.7385C28.9894 33.7385 32.9554 32.2013 35.995 29.4285C39.0347 26.6556 40.9287 22.8471 41.3056 18.75H44.3187C43.9345 23.6454 41.7201 28.2163 38.1167 31.5521C34.5133 34.888 29.7854 36.7438 24.875 36.75Z" fill="white"/>
</g>
</g>
</g>
</g>
<defs>
<clipPath id="clip0_777_1694">
<rect width="48" height="48" fill="white" transform="translate(0.875)"/>
</clipPath>
</defs>
</svg>
