<svg width="51" height="50" viewBox="0 0 51 50" fill="none" xmlns="http://www.w3.org/2000/svg">
<g id="noun-customers-feedback-3988052 1" clip-path="url(#clip0_777_2523)">
<g id="Group">
<path id="Vector" d="M25.5 14.7656C26.4766 14.7656 28.8203 13.8281 30.4219 9.33594C30.9297 7.85156 31.1641 6.25 30.9297 4.6875C30.4219 0.9375 28 0.117188 25.5 0.117188C23 0.117188 20.5781 0.9375 20.0703 4.6875C19.875 6.25 20.0703 7.85156 20.5781 9.33594C22.1797 13.8281 24.5234 14.7656 25.5 14.7656Z" fill="#272828"/>
<path id="Vector_2" d="M34.5625 15H28.5859C27.6094 15.8203 26.4766 16.2891 25.5 16.2891C24.5234 16.2891 23.3906 15.8203 22.4141 15H16.4375C15.8516 15 15.3438 15.3516 15.1484 15.8984C14.0156 18.9844 13.4297 28.0078 13.4297 28.0078C13.4297 28.5547 13.7422 29.0234 14.25 29.2578C17.2187 30.5859 21.1641 31.3672 25.4609 31.3672C29.7578 31.3672 33.7031 30.5859 36.6719 29.2578C37.1797 29.0234 37.4922 28.5547 37.4922 28.0078C37.4922 28.0078 36.9062 18.9844 35.7734 15.8984C35.6562 15.3516 35.1094 15 34.5625 15Z" fill="#272828"/>
<path id="Vector_3" d="M37.1407 13.6328C37.961 13.6328 39.9923 12.8125 41.3595 8.94531C41.8282 7.65625 41.9845 6.28906 41.7891 4.96094C41.3595 1.71875 39.2501 1.01562 37.1016 1.01562C34.9532 1.01562 32.8438 1.71875 32.4141 4.96094C32.2188 6.28906 32.4141 7.65625 32.8438 8.94531C34.2891 12.8125 36.3204 13.5937 37.1407 13.6328Z" fill="#272828"/>
<path id="Vector_4" d="M13.8594 13.6328C14.6797 13.6328 16.711 12.8125 18.0781 8.94531C18.5469 7.65625 18.7031 6.28906 18.5078 4.96094C18.0781 1.71875 15.9688 1.01562 13.8203 1.01562C11.6719 1.01562 9.56252 1.71875 9.13283 4.96094C8.93752 6.28906 9.13283 7.65625 9.56252 8.94531C11.0078 12.8125 13.0391 13.5937 13.8594 13.6328Z" fill="#272828"/>
<path id="Vector_5" d="M40.0703 13.9062C39.1719 14.6875 38.1172 15.1562 37.1797 15.1562C37.2187 15.2344 37.2578 15.3125 37.2578 15.3906C37.7656 16.7969 38.2344 19.3359 38.625 22.9687C38.8984 25.3906 39.0156 27.5 39.0547 27.8906C41.9844 27.6953 44.6797 27.0703 46.7891 26.1328C47.2187 25.9375 47.4922 25.5078 47.4922 25.0391C47.4922 25.0391 46.9844 17.2656 46.0078 14.6094C45.8516 14.1406 45.3828 13.8281 44.9141 13.8281H40.1094C40.1094 13.8281 40.1094 13.8672 40.0703 13.9062Z" fill="#272828"/>
<path id="Vector_6" d="M4.21094 26.0938C6.32031 27.0313 8.97656 27.6563 11.9453 27.8516C11.9844 27.4609 12.1016 25.3906 12.375 22.9297C12.7656 19.2969 13.2344 16.7578 13.7422 15.3516C13.7812 15.2734 13.8203 15.1953 13.8203 15.1172C12.8828 15.0781 11.8281 14.6484 10.9297 13.8672C10.8906 13.8281 10.8906 13.8281 10.8516 13.7891H6.08594C5.57812 13.7891 5.14844 14.1016 4.99219 14.5703C4.01562 17.2266 3.50781 25 3.50781 25C3.50781 25.5078 3.78125 25.8984 4.21094 26.0938Z" fill="#272828"/>
<path id="Vector_7" d="M33.4688 38.5938H28.0781L26.3984 33.4375C26.2813 33.0859 25.9297 32.8125 25.5 32.8125C25.0703 32.8125 24.7188 33.0859 24.6016 33.4766L22.9219 38.6328H17.5312C17.1016 38.6328 16.75 38.9062 16.6328 39.2969C16.5156 39.6875 16.6328 40.1172 16.9844 40.3516L21.3594 43.5156L19.6797 48.6719C19.5625 49.0625 19.6797 49.4922 20.0313 49.7266C20.3828 49.9609 20.8125 49.9609 21.1641 49.7266L25.5391 46.5625L29.9141 49.7266C30.2656 49.9609 30.6953 49.9609 31.0469 49.7266C31.3984 49.4922 31.5156 49.0625 31.3984 48.6719L29.7188 43.5156L34.0938 40.3516C34.4453 40.1172 34.5625 39.6875 34.4453 39.2969C34.25 38.8672 33.8984 38.5938 33.4688 38.5938Z" fill="#272828"/>
<path id="Vector_8" d="M12.6875 39.5703L16.711 36.6406C17.0235 36.4062 17.1406 36.0156 17.0235 35.6641C16.9063 35.3125 16.5547 35.0391 16.2031 35.0391H11.2422L9.71877 30.3125C9.60158 29.9609 9.25002 29.6875 8.89845 29.6875C8.54689 29.6875 8.19533 29.9219 8.07814 30.3125L6.55471 35.0391H1.51564C1.12502 35.0391 0.81252 35.2734 0.695332 35.6641C0.578145 36.0156 0.695332 36.4062 1.00783 36.6406L5.03127 39.5703L3.50783 44.2969C3.39064 44.6484 3.50783 45.0391 3.82033 45.2734C4.13283 45.5078 4.56252 45.5078 4.83596 45.2734L8.85939 42.3437L12.8828 45.2734C13.1953 45.5078 13.625 45.5078 13.8985 45.2734C14.211 45.0391 14.3281 44.6484 14.211 44.2969L12.6875 39.5703Z" fill="#272828"/>
<path id="Vector_9" d="M50.3438 35.6641C50.2266 35.3125 49.875 35.0391 49.5235 35.0391H44.5235L43 30.3125C42.8828 29.9609 42.5313 29.6875 42.1797 29.6875C41.7891 29.6875 41.4766 29.9219 41.3594 30.3125L39.836 35.0391H34.7969C34.4063 35.0391 34.0938 35.2734 33.9766 35.6641C33.8594 36.0156 33.9766 36.4062 34.2891 36.6406L38.3125 39.5703L36.7891 44.2969C36.6719 44.6484 36.7891 45.0391 37.1016 45.2734C37.4141 45.5078 37.8438 45.5078 38.1172 45.2734L42.1406 42.3437L46.1641 45.2734C46.4766 45.5078 46.9063 45.5078 47.1797 45.2734C47.4922 45.0391 47.6094 44.6484 47.4922 44.2969L45.9688 39.5703L49.9922 36.6406C50.3047 36.4453 50.461 36.0547 50.3438 35.6641Z" fill="#272828"/>
</g>
</g>
<defs>
<clipPath id="clip0_777_2523">
<rect width="50" height="50" fill="white" transform="translate(0.5)"/>
</clipPath>
</defs>
</svg>
