<svg width="61" height="60" viewBox="0 0 61 60" fill="none" xmlns="http://www.w3.org/2000/svg">
<g id="noun-return-5729785 1">
<g id="Group">
<path id="Vector" fill-rule="evenodd" clip-rule="evenodd" d="M13.8997 7.22533C13.7234 7.04908 13.625 6.81189 13.625 6.56252C13.625 6.31314 13.7234 6.07596 13.8997 5.89971L16.7122 3.08721C17.0778 2.72158 17.6722 2.72158 18.0378 3.08721C18.4034 3.45283 18.4034 4.04721 18.0378 4.41283L16.8256 5.62502H42.6875C43.9306 5.62502 45.1231 6.11908 46.0016 6.99752C46.8809 7.87689 47.375 9.06939 47.375 10.3125V15C47.375 15.5175 46.955 15.9375 46.4375 15.9375C45.92 15.9375 45.5 15.5175 45.5 15V10.3125C45.5 9.56627 45.2037 8.85096 44.6759 8.32408C44.1491 7.79627 43.4338 7.50002 42.6875 7.50002H16.8256L18.0378 8.71221C18.4034 9.07783 18.4034 9.67221 18.0378 10.0378C17.6722 10.4035 17.0778 10.4035 16.7122 10.0378L13.8997 7.22533Z" fill="#272828"/>
<path id="Vector_2" fill-rule="evenodd" clip-rule="evenodd" d="M50.7754 22.7065L44.3507 25.9231L37.8482 22.7815C37.3569 22.5443 36.7785 22.5443 36.2872 22.7815C35.6319 23.0974 34.5482 23.7706 33.4616 24.2956C32.8504 24.5909 32.4716 25.1993 32.4716 25.8593C32.4716 26.5203 32.8504 27.1287 33.4616 27.424C33.4719 27.4287 33.4832 27.4334 33.4935 27.4381L37.6691 29.269L30.7991 32.7087C30.6107 32.8034 30.3894 32.8034 30.201 32.7087L10.2247 22.7065L30.2366 14.1171C30.4044 14.0449 30.5947 14.0449 30.7625 14.1171L50.7754 22.7065Z" fill="#272828"/>
<path id="Vector_3" fill-rule="evenodd" clip-rule="evenodd" d="M8.9375 24.1587L29.3609 34.3859C29.4275 34.4187 29.4941 34.4487 29.5625 34.4759V54.9228L9.30781 44.7799C9.08094 44.6665 8.9375 44.4331 8.9375 44.179V24.1587Z" fill="#272828"/>
<path id="Vector_4" fill-rule="evenodd" clip-rule="evenodd" d="M31.4375 54.9228V34.4759C31.505 34.4487 31.5725 34.4187 31.6381 34.3859L38.9375 30.7306V36.6284C38.9375 37.234 39.2563 37.8003 39.7897 38.1181C40.3044 38.4256 40.9466 38.4546 41.4884 38.1931C42.56 37.6746 43.76 36.9453 44.51 36.5834C45.1213 36.2881 45.5 35.6796 45.5 35.0196V27.4446L52.0625 24.1587V44.179C52.0625 44.434 51.9191 44.6665 51.6912 44.7799L31.4375 54.9228Z" fill="#272828"/>
<path id="Vector_5" fill-rule="evenodd" clip-rule="evenodd" d="M40.8125 29.7919L43.625 28.3828V34.9303C42.905 35.2847 41.8147 35.94 40.8125 36.4359V29.7919Z" fill="#272828"/>
<path id="Vector_6" fill-rule="evenodd" clip-rule="evenodd" d="M42.2338 26.9834L39.8488 28.1778L34.5444 25.8518C35.5204 25.3606 36.4644 24.7831 37.0682 24.4868L42.2338 26.9834Z" fill="#272828"/>
</g>
</g>
</svg>
