<svg width="61" height="60" viewBox="0 0 61 60" fill="none" xmlns="http://www.w3.org/2000/svg">
<g id="noun-shipping-5295349 1">
<path id="Vector" fill-rule="evenodd" clip-rule="evenodd" d="M5.94079 13.3892C5.39299 13.3892 4.94839 13.8332 4.94839 14.3816C4.94839 14.9294 5.39299 15.3734 5.94079 15.3734H11.684C12.404 15.3734 12.9932 15.9626 12.9932 16.6826C12.9932 17.4026 12.4046 17.9918 11.684 17.9918H8.81419C8.26399 17.9918 7.81819 18.4376 7.81819 18.9878C7.81819 19.538 8.26399 19.9838 8.81419 19.9838H14.5088C15.2282 19.9838 15.818 20.573 15.818 21.293C15.818 22.013 15.2288 22.6022 14.5088 22.6022C10.3754 22.6022 6.24379 22.598 2.11099 22.598C1.56079 22.598 1.11499 23.0444 1.11499 23.594C1.11499 24.1442 1.56079 24.59 2.11099 24.59H12.8558C13.5758 24.59 14.165 25.1792 14.165 25.8992C14.165 26.6192 13.5764 27.2084 12.8558 27.2084H6.66139C6.15259 27.2528 5.75299 27.68 5.75299 28.2008C5.75299 28.751 6.19939 29.1968 6.74959 29.1968H11.6846V32.9762H41.6V16.34C41.6 14.7146 40.2746 13.3892 38.6492 13.3892C27.7466 13.3892 16.8434 13.3892 5.94079 13.3892ZM41.6 34.9682H11.6846V39.725C11.6846 41.3504 13.0106 42.6758 14.636 42.6758H17.4644C17.4644 39.4022 20.1182 36.749 23.3912 36.749C26.6648 36.749 29.3186 39.4028 29.3186 42.6758H41.6V34.9682ZM48.6626 18.1526V27.6788H59.72C59.5922 27.3182 59.3894 26.9876 59.1116 26.6834L52.1894 19.1126C51.6098 18.479 50.8706 18.1526 50.0114 18.1526H48.6626ZM43.592 18.1526H46.67V28.6748C46.67 29.225 47.1158 29.6708 47.6654 29.6708H59.8844V42.6758H57.2444C57.2444 39.4022 54.5906 36.749 51.317 36.749C48.044 36.749 45.3902 39.4028 45.3902 42.6758H43.592V18.1526ZM51.317 41.4368C50.6318 41.4368 50.078 41.9912 50.078 42.6764C50.078 43.3622 50.6324 43.9154 51.317 43.9154C52.0028 43.9154 52.5566 43.3616 52.5566 42.6764C52.5572 41.9906 52.0028 41.4368 51.317 41.4368ZM23.3906 41.4368C24.0764 41.4368 24.6302 41.9912 24.6302 42.6764C24.6302 43.3622 24.0758 43.9154 23.3906 43.9154C22.7054 43.9154 22.1516 43.3616 22.1516 42.6764C22.1516 41.9906 22.706 41.4368 23.3906 41.4368ZM51.317 38.741C49.1444 38.741 47.3822 40.5032 47.3822 42.6758C47.3822 44.8484 49.1444 46.6106 51.317 46.6106C53.4902 46.6106 55.2524 44.8484 55.2524 42.6758C55.2524 40.5032 53.4902 38.741 51.317 38.741ZM23.3906 38.741C25.5638 38.741 27.3254 40.5032 27.3254 42.6758C27.3254 44.8484 25.5638 46.6106 23.3906 46.6106C21.218 46.6106 19.4558 44.8484 19.4558 42.6758C19.4558 40.5032 21.218 38.741 23.3906 38.741Z" fill="#282727"/>
</g>
</svg>
