<svg width="12" height="12" viewBox="0 0 12 12" fill="none" xmlns="http://www.w3.org/2000/svg">
<path id="Vector" d="M11.5 9.97656C11.5 10.6016 11.3099 11.0951 10.9297 11.457C10.5495 11.819 10.0443 12 9.41406 12H2.58594C1.95573 12 1.45052 11.819 1.07031 11.457C0.690104 11.0951 0.5 10.6016 0.5 9.97656C0.5 9.70052 0.509115 9.43099 0.527344 9.16797C0.545573 8.90495 0.582031 8.62109 0.636719 8.31641C0.691406 8.01172 0.760417 7.72917 0.84375 7.46875C0.927083 7.20833 1.03906 6.95443 1.17969 6.70703C1.32031 6.45964 1.48177 6.2487 1.66406 6.07422C1.84635 5.89974 2.06901 5.76042 2.33203 5.65625C2.59505 5.55208 2.88542 5.5 3.20312 5.5C3.25 5.5 3.35938 5.55599 3.53125 5.66797C3.70312 5.77995 3.89714 5.90495 4.11328 6.04297C4.32943 6.18099 4.61068 6.30599 4.95703 6.41797C5.30339 6.52995 5.65104 6.58594 6 6.58594C6.34896 6.58594 6.69661 6.52995 7.04297 6.41797C7.38932 6.30599 7.67057 6.18099 7.88672 6.04297C8.10286 5.90495 8.29688 5.77995 8.46875 5.66797C8.64062 5.55599 8.75 5.5 8.79688 5.5C9.11458 5.5 9.40495 5.55208 9.66797 5.65625C9.93099 5.76042 10.1536 5.89974 10.3359 6.07422C10.5182 6.2487 10.6797 6.45964 10.8203 6.70703C10.9609 6.95443 11.0729 7.20833 11.1562 7.46875C11.2396 7.72917 11.3086 8.01172 11.3633 8.31641C11.418 8.62109 11.4544 8.90495 11.4727 9.16797C11.4909 9.43099 11.5 9.70052 11.5 9.97656ZM8.12109 0.878906C8.12109 0.878906 8.26758 1.02539 8.56055 1.31836C8.85352 1.61133 9 2.17188 9 3C9 3.82812 8.70703 4.53516 8.12109 5.12109C7.53516 5.70703 6.82812 6 6 6C5.17188 6 4.46484 5.70703 3.87891 5.12109C3.29297 4.53516 3 3.82812 3 3C3 2.17188 3.29297 1.46484 3.87891 0.878906C4.46484 0.292969 5.17188 0 6 0C6.82812 0 7.53516 0.292969 8.12109 0.878906Z" fill="#282727"/>
</svg>
